<svg width="68" height="72" viewBox="0 0 68 72" fill="none" xmlns="http://www.w3.org/2000/svg">
<path d="M17.0643 59.1914C25.1448 64.5845 39.2192 58.777 48.5002 46.22C57.7813 33.6629 58.7546 19.1115 50.674 13.7184C42.5935 8.32532 28.5192 14.1329 19.2381 26.6899C9.95704 39.2469 8.9838 53.7983 17.0643 59.1914Z" fill="white"/>
<path d="M49.9215 14.7365C57.2729 19.6429 56.1332 33.7302 47.4297 45.5057C38.7263 57.2813 25.1679 63.0801 17.8165 58.1737C10.4652 53.2673 11.6049 39.18 20.3084 27.4044C29.0118 15.6289 42.5774 9.83488 49.9215 14.7365ZM51.4265 12.7004C42.7548 6.91275 27.8639 12.856 18.1672 25.9754C8.47048 39.0948 7.63992 54.4221 16.3116 60.2098C24.9833 65.9974 39.8742 60.0542 49.5709 46.9348C59.2676 33.8154 60.1053 18.4928 51.4265 12.7004Z" fill="black"/>
<path d="M33.462 42.7722C37.995 45.7976 45.8247 42.6286 50.9501 35.6941C56.0755 28.7596 56.5557 20.6855 52.0227 17.6601C47.4897 14.6347 39.66 17.8036 34.5346 24.7381C29.4092 31.6726 28.929 39.7468 33.462 42.7722Z" fill="black"/>
<path d="M51.772 17.9996C56.1043 20.8911 55.5748 28.7166 50.5935 35.4562C45.6123 42.1958 38.0454 45.3245 33.7131 42.4331C29.3808 39.5417 29.9103 31.7161 34.8916 24.9765C39.8729 18.237 47.4469 15.113 51.772 17.9996ZM52.2737 17.3209C47.5417 14.1627 39.44 17.3805 34.1779 24.5002C28.9157 31.6198 28.4794 39.9536 33.2114 43.1118C37.9434 46.27 46.0451 43.0522 51.3072 35.9325C56.5694 28.8129 57.0057 20.4791 52.2737 17.3209Z" fill="black"/>
<path d="M31.0321 39.6297C33.153 41.0453 36.4445 40.0656 38.384 37.4416C40.3234 34.8177 40.1763 31.543 38.0555 30.1275C35.9346 28.712 32.6431 29.6916 30.7037 32.3156C28.7642 34.9396 28.9113 38.2142 31.0321 39.6297Z" fill="white"/>
</svg>
