<svg width="46" height="57" viewBox="0 0 46 57" fill="none" xmlns="http://www.w3.org/2000/svg">
<path d="M30.5184 50.0173C38.1577 47.5739 40.9404 35.9659 36.7339 24.0901C32.5273 12.2142 22.9244 4.56774 15.2852 7.01114C7.64595 9.45454 4.8632 21.0626 9.06974 32.9384C13.2763 44.8142 22.8792 52.4607 30.5184 50.0173Z" fill="white"/>
<path d="M15.6262 7.97392C22.5761 5.75104 31.7773 13.2772 35.722 24.4139C39.6666 35.5507 37.1271 46.832 30.1772 49.0549C23.2273 51.2778 14.0261 43.7516 10.0814 32.6149C6.13675 21.4781 8.68301 10.1946 15.6262 7.97392ZM14.9441 6.04825C6.7459 8.67038 3.66233 20.8546 8.05719 33.2623C12.452 45.67 22.6611 53.6027 30.8593 50.9805C39.0575 48.3584 42.1411 36.1742 37.7462 23.7665C33.3513 11.3588 23.1491 3.42396 14.9441 6.04825Z" fill="black"/>
<path d="M26.6538 39.1062C30.9392 37.7355 32.5302 31.3077 30.2072 24.7494C27.8842 18.1911 22.527 13.9856 18.2415 15.3563C13.956 16.727 12.3651 23.1547 14.6881 29.7131C17.0111 36.2714 22.3683 40.4768 26.6538 39.1062Z" fill="black"/>
<path d="M18.3552 15.6769C22.4509 14.3669 27.6122 18.483 29.8699 24.857C32.1276 31.2309 30.6359 37.475 26.5401 38.7849C22.4444 40.0949 17.283 35.9788 15.0253 29.6049C12.7677 23.2309 14.2662 16.9847 18.3552 15.6769ZM18.1278 15.035C13.6542 16.4658 11.9656 23.0872 14.3506 29.8207C16.7356 36.5541 22.2939 40.8577 26.7675 39.4268C31.2411 37.996 32.9297 31.3746 30.5447 24.6411C28.1597 17.9077 22.6014 13.6041 18.1278 15.035Z" fill="black"/>
<path d="M19.3556 28.9348C21.9347 28.1099 23.1093 24.8545 21.9791 21.6637C20.8488 18.473 17.8418 16.5551 15.2627 17.3801C12.6836 18.205 11.509 21.4604 12.6392 24.6512C13.7695 27.8419 16.7765 29.7598 19.3556 28.9348Z" fill="white"/>
</svg>
