<svg width="62" height="69" viewBox="0 0 62 69" fill="none" xmlns="http://www.w3.org/2000/svg">
<path d="M16.9067 57.2956C25.1015 61.7961 38.025 55.1183 45.772 42.3803C53.519 29.6423 53.156 15.6677 44.9611 11.1672C36.7663 6.66669 23.8428 13.3445 16.0958 26.0825C8.34878 38.8205 8.71181 52.7951 16.9067 57.2956Z" fill="white"/>
<path d="M44.333 12.1999C51.7883 16.2943 51.9513 29.8391 44.6863 41.7843C37.4214 53.7296 24.9898 60.3576 17.5344 56.2632C10.0791 52.1688 9.91616 38.6241 17.1811 26.6788C24.446 14.7335 36.8848 8.10951 44.333 12.1999ZM45.5891 10.1345C36.7947 5.30467 23.1036 12.1778 15.0096 25.4863C6.91561 38.7947 7.48381 53.4989 16.2783 58.3287C25.0727 63.1585 38.7638 56.2854 46.8578 42.9769C54.9518 29.6684 54.3908 14.9682 45.5891 10.1345Z" fill="black"/>
<path d="M24.0244 45.5913C28.6216 48.116 35.8165 44.4601 40.0947 37.4256C44.373 30.3912 44.1144 22.642 39.5173 20.1173C34.9201 17.5926 27.7252 21.2484 23.4469 28.2829C19.1687 35.3174 19.4273 43.0666 24.0244 45.5913Z" fill="black"/>
<path d="M39.3072 20.4618C43.7009 22.8747 43.8903 30.3906 39.7323 37.2273C35.5744 44.064 28.6268 47.6604 24.2332 45.2475C19.8396 42.8346 19.6502 35.3188 23.8081 28.482C27.966 21.6453 34.9209 18.0529 39.3072 20.4618ZM39.726 19.7733C34.927 17.1378 27.4767 20.8622 23.0843 28.0845C18.6919 35.3068 19.0155 43.3005 23.8145 45.936C28.6135 48.5715 36.0638 44.8471 40.4562 37.6248C44.8486 30.4025 44.5249 22.4088 39.726 19.7733Z" fill="black"/>
<path d="M33.8861 35.8539C36.6527 37.3733 40.5829 35.8307 42.6643 32.4083C44.7457 28.9859 44.1902 24.9797 41.4236 23.4603C38.6569 21.9409 34.7267 23.4836 32.6453 26.906C30.5639 30.3284 31.1194 34.3345 33.8861 35.8539Z" fill="white"/>
</svg>
